<svg version="1.1" xmlns="http://www.w3.org/2000/svg" viewBox="0 0 1145.78125 817.47265625">
  <!-- svg-source:excalidraw -->
  <defs>
    <style>
      @font-face {
        font-family: "Virgil";
        src: url("https://excalidraw.com/FG_Virgil.woff2");
      }
      @font-face {
        font-family: "Cascadia";
        src: url("https://excalidraw.com/Cascadia.woff2");
      }
    </style>
  </defs>
  <g transform="translate(10 278.73046875) rotate(0 253.748046875 256.12109375)"><path d="M0.6968388184905052 0.3066073551774025 C123.11004426338987 -1.6690291825651369, 245.65866078006655 -0.715988535058423, 506.8470453366637 -0.615960155427456 M-0.14277130886912345 0.2861495785415173 C138.68445159771437 -1.252733956781944, 277.5916862535654 -1.385545097796043, 507.8449004717171 -0.3507359929382801 M507.49741498082875 -0.22286666482686998 C507.2634336094331 156.53933022412093, 506.6844858269166 313.9542263928539, 507.58835483640433 512.9770893231034 M507.2455304689705 0.25986142680048946 C508.7651999269011 105.69863560305822, 509.1908535514357 210.61236629176713, 507.74414661601185 512.4020827583969 M507.4652503594756 513.0008834972978 C368.039364184958 510.02632477323965, 227.98980705096764 510.6792280916448, 0.13222628682851792 512.5372789993883 M507.1540722675621 512.1232087425888 C383.02386057114273 510.7591082968933, 258.44773288961585 510.92033554699253, 0.049497038871049885 511.9137508444488 M0.761038313806057 512.3226332321763 C-0.32578175788704555 406.1316131892745, -0.1339379144269625 298.99768695740784, 0.5549780473113061 0.5453217640519142 M0.26539803221821784 512.0706007055938 C0.8483359060888762 356.5880068666869, 0.7715771160727019 201.57114102460616, -0.0635355643928051 0.27477119490504265" stroke="#000000" stroke-width="1" fill="none"></path></g><g transform="translate(48.08203125 318.0546875) rotate(0 79.5 13)"><text x="0" y="21" font-family="FZSJ-ZHIWNDXSG" font-size="20px" fill="#000000" text-anchor="start" style="white-space: pre;">__webpack_require__.e</text></g><g transform="translate(26.70703125 551.9609375) rotate(0 231.76562500000006 53.873046875)"><path d="M0.5781178013238971 -0.4142666441467641 C180.53702648605423 0.1488207735257583, 360.10260669308764 -0.3002245994234111, 462.7116256746932 0.7145741599564712 M0.018137788093552706 0.16095531388311268 C139.74883322402638 2.5026217230075143, 279.4135931203298 2.5916875750295056, 463.08478827929974 0.41170259737752324 M465.3974522687496 -0.5502851940691471 C463.88167654964553 24.444440195029177, 462.4229047248088 48.75327920107086, 465.3755069114269 107.87146523222331 M463.04749287478637 0.5598088074475527 C463.4862731375099 30.495444646727275, 462.04456701654203 63.18237939042594, 463.128197265789 107.98756064660851 M463.8767033228766 106.89825027262906 C331.92784286332653 109.60857386948155, 200.2350038307334 109.27053620125086, 0.23086409196724214 107.88859595075107 M463.8413222932494 107.37074628692916 C362.03150085397414 105.98040388858384, 260.31248544654625 106.8456185571423, 0.04331015972922291 107.6229435143201 M-1.630857314914465 108.63264551386241 C-2.093066557021157 84.04759413309442, 0.04425384226320572 59.06645129114479, -0.7160884998738766 1.6920225881040096 M0.38633753173053265 108.6450879145414 C0.16907176627129994 77.77522745689569, 0.6349469746491381 47.74809656773143, -0.32193283922970295 -0.02008245699107647" stroke="#000000" stroke-width="1" fill="none"></path></g><g transform="translate(64.33203125 575.2734375) rotate(0 193 29)"><text x="0" y="23" font-family="FZSJ-ZHIWNDXSG" font-size="22.539585230292122px" fill="#000000" text-anchor="start" style="white-space: pre;">new Promise 以及回调</text><text x="0" y="52" font-family="FZSJ-ZHIWNDXSG" font-size="22.539585230292122px" fill="#000000" text-anchor="start" style="white-space: pre;">installedChunks[chunkId] = [resolve, reject];</text></g><g transform="translate(27.2421875 441.390625) rotate(0 234.30078125000006 28.71875)"><path d="M0.037868695786993964 0.793395208986675 C138.63670437507832 -1.6322253175182584, 276.9242860001132 -1.184708277939492, 467.87168708573427 -0.06759483796801846 M-0.2794408411979915 -0.4207058682558064 C176.83761603038292 1.8230247942431648, 353.8670093963857 2.1515132344314347, 468.482419986523 -0.07673696677115795 M470.48217787966144 -0.8150083683431149 C466.92018342483914 14.714490734215364, 467.3269208716241 32.45520580967423, 469.75231697782885 57.50689927116038 M468.2533551026137 -0.31927924044430256 C468.9444119004336 22.005444550153342, 468.80710896531014 45.15067729766017, 469.1866001058371 57.787771357223406 M469.0960412116934 57.475101120718364 C330.9665533845554 57.78550300526458, 192.43427563132204 57.226853518129, -0.3032195186639653 57.95929985922121 M468.20431064104804 56.99050119399276 C325.68615330317783 58.815860543116365, 182.86551576652914 59.113261361270006, 0.44640654003113356 57.12283997411228 M0.1275109313428402 56.51766685023905 C-0.7972661739226895 37.89302878436867, -0.8446531778213101 20.670280519523665, 1.2618391774594784 -1.7610648535192013 M0.08985491283237934 56.82399733178319 C-0.3582046567078214 42.00721068269341, -0.05122124539571815 24.210517951450313, -0.8198222946375608 0.35801555030047894" stroke="#000000" stroke-width="1" fill="none"></path></g><g transform="translate(73.0078125 444.78515625) rotate(0 189 26)"><text x="0" y="21" font-family="FZSJ-ZHIWNDXSG" font-size="20px" fill="#000000" text-anchor="start" style="white-space: pre;">设置加载完成或者错误的回调</text><text x="0" y="47" font-family="FZSJ-ZHIWNDXSG" font-size="20px" fill="#000000" text-anchor="start" style="white-space: pre;">script.onerror = script.onload = onScriptComplete;</text></g><g transform="translate(75.10546875 362.1171875) rotate(0 176.5 13)"><text x="0" y="21" font-family="FZSJ-ZHIWNDXSG" font-size="20px" fill="#000000" text-anchor="start" style="white-space: pre;">通过 Script 标签，JSONP 的方式动态引入</text></g><g transform="translate(30.453125 287.41796875) rotate(0 33.5 13)"><text x="0" y="21" font-family="FZSJ-ZHIWNDXSG" font-size="20px" fill="#e67700" text-anchor="start" style="white-space: pre;">主Bundle</text></g><g transform="translate(649.09375 280.56640625) rotate(0 243.34375 108.572265625)"><path d="M0.6853822086152931 -0.24920933118800567 C122.58468507520458 -1.8029937751663114, 247.25675964189352 -0.9055861416447397, 486.0422308588307 -0.15449768177990664 M-0.015394701261480386 -0.18066059291968548 C164.64678742679462 1.9119375225418074, 328.87283771421176 1.8390282331682353, 486.4808372566466 -0.20004960736150793 M487.932667226859 -0.04642896068565339 C487.11825703087635 58.38793225872377, 485.41824935539665 118.43002624482004, 487.04251952658984 215.6461614635785 M487.25657778807033 0.019265714249729025 C485.21144170816626 86.60866445228062, 486.19283711293735 171.09760477575006, 487.3290986603177 216.54368505140656 M487.1263755547075 216.58350683915197 C332.9812751874268 219.91981241295386, 178.2256738163943 219.39251212626536, 0.7349569133468141 217.32117131406267 M486.82449248095105 216.92535308977398 C357.9872594676543 218.78334627496375, 228.68488394430645 218.35040098748445, 0.31682300905989386 216.9817483301361 M0.6146026780279764 218.77407191969723 C1.9239473503435498 167.8490028140438, 1.0212824773336335 118.5344321409559, -0.3002831057377571 1.6029349514789577 M0.5265138120791574 217.31340583862809 C-0.16981181453729155 168.71030453174976, -0.6095863978774629 120.87654864649602, -0.3320606397301639 -0.4136116366179912" stroke="#000000" stroke-width="1" fill="none"></path></g><g transform="translate(677.34765625 294.55859375) rotate(0 73.5 13)"><text x="0" y="21" font-family="FZSJ-ZHIWNDXSG" font-size="20px" fill="#e67700" text-anchor="start" style="white-space: pre;">动态引入的Bundle</text></g><g transform="translate(678.60546875 339.859375) rotate(0 218.416015625 55.275390625)"><path d="M0.6866141218907416 0.9627852879767351 C160.41441187814885 1.5699603932770838, 319.6623482152165 1.3582665438230164, 437.0563266303307 -0.9635365884168159 M-0.31687639947032475 0.17180474920833386 C127.05306811723005 1.4456078818909073, 253.01118010640562 1.70364219514226, 436.49321784583145 0.19673914118760047 M436.13317134603847 1.3335758782923222 C437.6903560209363 25.7401529534407, 435.9321726608365 49.430089556176966, 437.4046417735516 111.03336361423132 M436.4023332763462 0.049113763496279716 C437.2201581264208 25.89397432237965, 437.1276263857554 51.45784237332845, 437.62809498794365 111.3434755336493 M436.5310776922123 111.39607399154973 C298.7613059193906 112.85511218152314, 161.18698827363363 111.99568202516016, 0.476313327568745 111.01178813963209 M437.16194179608755 111.05363919737529 C338.6732154049232 110.58179179362432, 241.14366161644202 110.86596952977793, 0.4693573824191159 110.70901370938579 M1.8749780915677547 109.61823931708929 C0.7476879554571498 76.31141135663127, -1.7783405584512364 39.314554251886136, -1.180524442344904 -1.0953564308583736 M0.7374102044850588 110.07876194827256 C0.08189649466738025 87.26252166938863, 0.5924645769999913 66.50940509350765, -0.778309864923358 0.2045102845877409" stroke="#000000" stroke-width="1" fill="none"></path></g><g transform="translate(690.328125 386.08203125) rotate(0 210 12)"><text x="0" y="19" font-family="FZSJ-ZHIWNDXSG" font-size="18.633938470066518px" fill="#000000" text-anchor="start" style="white-space: pre;">window["webpackJsonp"] = window["webpackJsonp"] || []).push</text></g><g transform="translate(43.203125 696.67578125) rotate(0 218.099609375 33.90625)"><path d="M-0.8962495116304176 -0.4658217056384661 C113.6237212145566 2.1009634834532926, 229.59041464210983 0.41706960685651673, 435.2852695924674 -0.24961303722074876 M0.4470017837779653 -0.30869528508758165 C144.58198721329813 1.6669629315665278, 290.08900351322313 1.869399029256687, 436.19320573487784 0.3488266527616249 M435.0913191102445 0.5764893628656864 C435.3653354351351 27.581931591092143, 437.05506619857044 50.89539155003149, 435.6205944083631 69.03690484538674 M436.28895344026387 -0.4167662728577852 C437.06608795561476 18.037357424327638, 437.4985615555255 35.75870638701599, 435.5701999235898 68.444730354473 M435.78068290397175 67.15175821968303 C289.05831762834265 65.83035898203089, 139.32543383717956 66.71871313545732, -0.9356256396071371 68.1985507863857 M436.3108231406547 68.27924841840705 C305.04252787071124 69.11450108651997, 173.31774518431948 68.75490937726002, -0.06634585602965488 67.94088507065376 M0.8969533704221249 68.64864364638925 C1.5504168926796411 43.1388415581896, -0.05455296644358898 15.354293528827839, -1.981310699135065 0.15124205127358437 M0.39546133764088154 67.12672926299274 C-0.4010957941471134 46.1698232992203, 0.9408741131366696 24.003946311888285, -0.3955845069140196 0.7402667533606291" stroke="#000000" stroke-width="1" fill="none"></path></g><g transform="translate(85.59765625 714.2265625) rotate(0 78.5 13)"><text x="0" y="21" font-family="FZSJ-ZHIWNDXSG" font-size="20px" fill="#000000" text-anchor="start" style="white-space: pre;">webpackJsonpCallback</text></g><g transform="translate(414.88671875 10) rotate(0 274.484375 95.103515625)"><path d="M0.1761212006211281 0.7464751824736595 C116.33293610769907 -0.920652771985391, 234.19352451331216 -0.5661578665135891, 549.3270506992936 -0.46694439798593523 M-0.27133340314030646 0.06529701426625252 C118.45839052567608 -1.3967589096778537, 236.97581510756865 -1.8932099299186373, 548.7449373058975 0.33744297698140147 M549.3403079845011 -0.5245301462709904 C549.3929352935634 53.467466761814286, 548.8068479474864 107.22487123215542, 548.1903223134577 190.72417416796088 M549.8627595435828 0.7346782851964235 C549.2220571889206 48.475023310093825, 549.1492761625573 94.86894995425392, 549.5170360933989 190.5250457096845 M549.1162927284837 190.64207788556814 C336.32551764700906 192.8704217618613, 123.78666059531966 191.85049344955965, -0.5828967913985252 190.79601365178823 M548.6204392008483 190.49644540026785 C358.83193110195566 187.7910089319551, 169.2000201405142 187.81709666903853, -0.3930401511490345 190.56589513495564 M1.3449192382395267 190.80358031019568 C-1.365908149210518 116.19581204742207, -0.057807568041389645 47.30730876877931, 1.275934848934412 -1.3489070869982243 M-0.03940455801784992 190.1096111703664 C-0.2749494590042014 142.6535976139152, 0.0338498674156289 96.04806509078917, -0.37710569985210896 0.7307624388486147" stroke="#000000" stroke-width="1" fill="none"></path></g><g transform="translate(430.76839717741916 42.1328125) rotate(0 268.49999999999994 62.5)"><text x="0" y="20" font-family="FZSJ-ZHIWNDXSG" font-size="18.943806706202537px" fill="#000000" text-anchor="start" style="white-space: pre;">if (true) {</text><text x="0" y="45" font-family="FZSJ-ZHIWNDXSG" font-size="18.943806706202537px" fill="#000000" text-anchor="start" style="white-space: pre;">  __webpack_require__.e(/*! import() */ 0)</text><text x="0" y="70" font-family="FZSJ-ZHIWNDXSG" font-size="18.943806706202537px" fill="#000000" text-anchor="start" style="white-space: pre;">  .then(__webpack_require__.bind(null, /*! ./Another.js */ "./src/Another.js"))</text><text x="0" y="95" font-family="FZSJ-ZHIWNDXSG" font-size="18.943806706202537px" fill="#000000" text-anchor="start" style="white-space: pre;">  .then(res =&gt; console.log(res))</text><text x="0" y="120" font-family="FZSJ-ZHIWNDXSG" font-size="18.943806706202537px" fill="#000000" text-anchor="start" style="white-space: pre;">}</text></g><g><g transform="translate(422.70703125 366.734375) rotate(0 126.77498229640997 4.632617507916862)"><path d="M0.6635288201272487 1.199676362425089 C42.87303928161661 2.709892081966003, 211.66432807867727 7.534331663201253, 253.99722187146546 8.481332508474589 M-0.4472572786454112 0.7839025073591621 C41.537515901938704 2.000831649734949, 210.59093652915521 5.5708446839793275, 253.0374639841076 6.728351857895031" stroke="#000000" stroke-width="1" fill="none"></path></g><g transform="translate(422.70703125 366.734375) rotate(0 126.77498229640997 4.632617507916862)"><path d="M226.6093073953789 16.276083787459996 C236.11118388393047 13.758341041502941, 243.7267972201164 7.696648613612512, 251.2682834739145 6.615944326305762 M224.1754433290016 17.22373568967369 C235.15060629442684 12.66530653374948, 246.67510012256034 9.629427715779785, 252.73336897104048 5.757976094642654" stroke="#000000" stroke-width="1" fill="none"></path></g><g transform="translate(422.70703125 366.734375) rotate(0 126.77498229640997 4.632617507916862)"><path d="M227.09904230141143 -4.239280262628229 C236.32464044209203 0.6656802702588842, 243.763126494091 2.0239831776761656, 251.2682834739145 6.615944326305762 M224.66517823503415 -3.2916283604145367 C235.6045376374786 0.3312739417341293, 246.93372414061972 5.476966060431245, 252.73336897104048 5.757976094642654" stroke="#000000" stroke-width="1" fill="none"></path></g></g><g><g transform="translate(682.09765625 440.47265625) rotate(0 -100.14185787611638 135.9920557347778)"><path d="M-0.49399099722504614 0.9605729497969151 C-34.073295843352874 46.180876763413345, -167.5169649320344 225.40842201684913, -200.6870466031134 270.640608612448 M1.4475249998923392 0.419269803101197 C-32.37484438238976 45.80134891394215, -168.1965314059301 226.58516059829233, -201.73124075212516 271.56484166645447" stroke="#000000" stroke-width="1" fill="none"></path></g><g transform="translate(682.09765625 440.47265625) rotate(0 -100.14185787611638 135.9920557347778)"><path d="M-191.44713491781533 242.54370813940523 C-198.33345078185266 254.96455886045965, -198.65401597735976 261.92265374404803, -200.10087702327408 270.8523970369343 M-193.15481103978038 243.30962476444302 C-196.80437253030115 254.03964479159953, -199.01090572582817 263.9167465946339, -201.00230835468508 271.860598496357" stroke="#000000" stroke-width="1" fill="none"></path></g><g transform="translate(682.09765625 440.47265625) rotate(0 -100.14185787611638 135.9920557347778)"><path d="M-175.02038185909268 254.8433742459947 C-187.8446623162362 262.69822281264453, -194.17301467200636 265.15793777620036, -200.10087702327408 270.8523970369343 M-176.72805798105773 255.6092908710325 C-186.5743627918258 261.6060635167295, -195.01097898452088 266.81833956828535, -201.00230835468508 271.860598496357" stroke="#000000" stroke-width="1" fill="none"></path></g></g><g><g transform="translate(221.16796875 696.7265625) rotate(0 0.1331347497372235 -30.84393222889861)"><path d="M-0.7559044875204564 -1.0655170999467372 C-0.9239849684139093 -11.192863432814676, -0.2258632856110731 -51.018925357113275, -0.15640027895569797 -61.0845842204988 M1.0481069271918386 0.9894824772421269 C0.7195539206421624 -9.427149807180589, -0.3691053013845034 -51.93426875637534, -0.6718097952846436 -62.67734693503939" stroke="#000000" stroke-width="1" fill="none"></path></g><g transform="translate(221.16796875 696.7265625) rotate(0 0.1331347497372235 -30.84393222889861)"><path d="M8.564720551797052 -33.39821514360406 C8.011384923265773 -44.1253290526023, 3.3009015169189286 -54.686847917513106, 0.6731373304780575 -60.73463924369775 M10.743535728507538 -33.810820151714466 C7.821618121531177 -43.37909916853161, 3.2810650985597904 -52.00059369286576, 0.312356843641028 -61.96951935394667" stroke="#000000" stroke-width="1" fill="none"></path></g><g transform="translate(221.16796875 696.7265625) rotate(0 0.1331347497372235 -30.84393222889861)"><path d="M-11.949117926722916 -32.848275816920726 C-4.890209440380511 -43.650200147142854, -1.9899175566589582 -54.41575028796241, 0.6731373304780575 -60.73463924369775 M-9.77030275001243 -33.26088082503113 C-6.07971754086771 -43.034643804040634, -4.011769548563912 -51.83330042324709, 0.312356843641028 -61.96951935394667" stroke="#000000" stroke-width="1" fill="none"></path></g></g><g><g transform="translate(219.8203125 564.0703125) rotate(0 -0.2091100514622326 -35.19424409493803)"><path d="M0.40580222234129915 -0.3209253631532192 C0.5044395250578723 -12.118826556454101, 0.13350018287698434 -58.6083754700919, 0.05710773095488553 -70.06756282672286 M-0.8402903402689844 -1.5350151241477579 C-0.799354586188371 -13.194370523855712, -0.6173553088152159 -56.98381494429273, -0.5697452364210038 -68.54715102828108" stroke="#000000" stroke-width="1" fill="none"></path></g><g transform="translate(219.8203125 564.0703125) rotate(0 -0.2091100514622326 -35.19424409493803)"><path d="M9.039538864644694 -39.29460326457362 C6.759815334189202 -46.65488433148448, 5.82111007587217 -52.96728210041253, 0.9614662850555034 -67.43579783580266 M10.09331821896367 -40.3113909332637 C8.207064283604456 -45.95333382140954, 5.882305141925554 -52.7616459041871, -1.0187748441193252 -67.6553442339506" stroke="#000000" stroke-width="1" fill="none"></path></g><g transform="translate(219.8203125 564.0703125) rotate(0 -0.2091100514622326 -35.19424409493803)"><path d="M-11.481494932607323 -39.37930437365719 C-8.518810798716533 -46.787345037629656, -4.215616489465449 -53.0781067276221, 0.9614662850555034 -67.43579783580266 M-10.427715578288346 -40.39609204234728 C-8.076840001381004 -45.83410532236467, -6.164052733297381 -52.62492682039654, -1.0187748441193252 -67.6553442339506" stroke="#000000" stroke-width="1" fill="none"></path></g></g><g><g transform="translate(494.15625 188.921875) rotate(0 -44.802561528929516 86.93679535691628)"><path d="M0.1249118484556675 0.8198368035256862 C-14.844178716590008 29.549822525431708, -74.1110693457226 143.87486783290902, -89.17171951159835 172.53136188611387 M-1.2686481604445725 0.20464718003757287 C-16.387052092201387 29.05910838852016, -74.74559727742957 144.7370764052837, -89.73003490631469 173.66894353379496" stroke="#000000" stroke-width="1" fill="none"></path></g><g transform="translate(494.15625 188.921875) rotate(0 -44.802561528929516 86.93679535691628)"><path d="M-84.68378357320401 145.13272630502146 C-88.58302901938495 153.88473473779837, -89.50504560078016 166.27734857233094, -89.67676143337972 173.2327555773128 M-86.93990582517657 143.85550133776528 C-87.44568308188674 153.46731186004743, -87.71456592202597 164.4181915515096, -90.19321382594295 173.55931415793486" stroke="#000000" stroke-width="1" fill="none"></path></g><g transform="translate(494.15625 188.921875) rotate(0 -44.802561528929516 86.93679535691628)"><path d="M-66.40669816701991 154.46375794363954 C-76.77992449539934 159.93563126001973, -84.16414560962397 169.0290847738017, -89.67676143337972 173.2327555773128 M-68.66282041899247 153.18653297638335 C-75.3708853063341 159.73140031263452, -81.82761490974583 167.52318802417523, -90.19321382594295 173.55931415793486" stroke="#000000" stroke-width="1" fill="none"></path></g></g><g><g transform="translate(224.96875 439.3515625) rotate(0 107.25357032194734 -167.54814963591753)"><path d="M-0.4478141628205776 0.36254648789763455 C35.55599922314286 -55.235458004226295, 178.8620857872069 -277.82675740296645, 214.95495480671525 -333.82027504816654 M1.5179446723591536 -0.492720551295206 C37.429313015891246 -56.395368247333295, 178.1289330502879 -279.75252122005134, 213.83970592911356 -335.45884575973264" stroke="#000000" stroke-width="1" fill="none"></path></g><g transform="translate(224.96875 439.3515625) rotate(0 107.25357032194734 -167.54814963591753)"><path d="M207.99679687938684 -306.6906022151243 C210.34616823241743 -310.9247485928476, 208.74275035279868 -319.0455985537205, 215.75064851711505 -336.34918033982626 M206.8483607894092 -306.8491015249174 C209.5157918310208 -313.73788278158133, 210.27418050599377 -320.4134650010369, 214.7985663990956 -336.3050992572587" stroke="#000000" stroke-width="1" fill="none"></path></g><g transform="translate(224.96875 439.3515625) rotate(0 107.25357032194734 -167.54814963591753)"><path d="M190.67207914421564 -317.68942750614895 C196.6557863486876 -319.5381013549958, 198.70799145572465 -325.33813090339777, 215.75064851711505 -336.34918033982626 M189.52364305423802 -317.84792681594206 C196.2254543222915 -322.14929797828796, 201.02005551237298 -326.26243750922566, 214.7985663990956 -336.3050992572587" stroke="#000000" stroke-width="1" fill="none"></path></g></g><g transform="translate(436.6171875 236.44140625) rotate(0 2.5 13)"><text x="0" y="21" font-family="FZSJ-ZHIWNDXSG" font-size="20px" fill="#000000" text-anchor="start" style="white-space: pre;">1</text></g><g transform="translate(556.1171875 334.44140625) rotate(0 5 13)"><text x="0" y="21" font-family="FZSJ-ZHIWNDXSG" font-size="20px" fill="#000000" text-anchor="start" style="white-space: pre;">2</text></g><g transform="translate(549.6171875 552.44140625) rotate(0 4.5 13)"><text x="0" y="21" font-family="FZSJ-ZHIWNDXSG" font-size="20px" fill="#000000" text-anchor="start" style="white-space: pre;">3</text></g><g transform="translate(228.6171875 659.44140625) rotate(0 4.5 13)"><text x="0" y="21" font-family="FZSJ-ZHIWNDXSG" font-size="20px" fill="#000000" text-anchor="start" style="white-space: pre;">4</text></g><g transform="translate(239.494140625 519.02734375) rotate(0 4.5 13)"><text x="0" y="21" font-family="FZSJ-ZHIWNDXSG" font-size="20px" fill="#000000" text-anchor="start" style="white-space: pre;">5</text></g><g transform="translate(291.1171875 280.44140625) rotate(0 4 13)"><text x="0" y="21" font-family="FZSJ-ZHIWNDXSG" font-size="20px" fill="#000000" text-anchor="start" style="white-space: pre;">6</text></g><g transform="translate(1008.78125 796.47265625) rotate(0 63.5 10.5)"><text x="63.5" y="17" font-family="FZSJ-ZHIWNDXSG" font-size="16px" fill="#adb5bd" text-anchor="middle" style="white-space: pre;">Made with Excalidraw</text></g></svg>